<?xml version="1.0" encoding="utf-8"?>
<!-- Generator: Adobe Illustrator 24.1.2, SVG Export Plug-In . SVG Version: 6.00 Build 0)  -->
<svg version="1.1" id="Layer_1" xmlns="http://www.w3.org/2000/svg" xmlns:xlink="http://www.w3.org/1999/xlink" x="0px" y="0px"
	 viewBox="0 0 862 937.32" style="enable-background:new 0 0 862 937.32;" xml:space="preserve">
<path d="M0,0c0,267.57,0,669.75,0,937.32c60.65-44.87,121.3-89.74,181.95-134.61c226.68,0,453.37,0,680.05,0V0H0z M410.08,128.55
	c10.67-10.53,23.52-15.79,38.56-15.79c15.04,0,27.9,5.33,38.56,16s16,23.52,16,38.56c0,15.04-5.33,27.9-16,38.56s-23.52,16-38.56,16
	c-15.04,0-27.9-5.33-38.56-16s-16-23.52-16-38.56C394.08,152,399.41,139.08,410.08,128.55z M422.39,649.34
	c-20.24,0-37.47-6.77-51.69-20.31c-14.22-13.54-21.33-31.93-21.33-55.18c0-7.38,0.96-16.95,2.87-28.72l34.87-245.32h-35.28
	l2.46-13.95h54.15c31.18,0,57.7-2.32,79.58-6.97L447,569.75c-1.64,8.2-2.46,16.82-2.46,25.84c0,5.74,1.37,10.53,4.1,14.36
	c2.73,3.83,6.01,5.74,9.85,5.74c7.65,0,15.11-4.44,22.36-13.33c7.24-8.88,13.06-21.26,17.43-37.13h14.36
	C496.5,621.31,466.41,649.34,422.39,649.34z"/>
</svg>
