<svg version="1.1" id="Layer_1" xmlns="http://www.w3.org/2000/svg" xmlns:xlink="http://www.w3.org/1999/xlink" x="0px" y="0px"
	 width="100%" viewBox="0 0 1829 1829" enable-background="new 0 0 1829 1829" xml:space="preserve">
<path fill="#F29FA6" opacity="1.000000" stroke="none" 
	d="
M1829.751709,139.679230 
	C1830.000000,657.020935 1830.000000,1174.041870 1830.000000,1691.531372 
	C1827.803955,1696.723267 1828.815308,1701.847900 1828.696899,1706.693115 
	C1828.412964,1718.298706 1826.430786,1729.488159 1823.058228,1740.520996 
	C1821.404297,1745.931641 1819.801270,1751.363159 1818.515015,1756.875854 
	C1817.058472,1763.118164 1814.565308,1768.787598 1810.569946,1773.904297 
	C1806.888550,1778.618896 1803.570435,1783.656738 1800.566895,1788.826172 
	C1796.742798,1795.408325 1791.500977,1800.158691 1784.697021,1803.441162 
	C1778.403442,1806.477295 1772.189941,1809.706299 1766.198120,1813.299805 
	C1754.429810,1820.357544 1740.801147,1820.855957 1728.047607,1824.434448 
	C1714.291382,1828.293945 1700.219482,1829.017090 1686.053711,1829.011719 
	C1684.573608,1829.011108 1683.047607,1828.766357 1681.321045,1829.751709 
	C1425.979126,1830.000000 1170.958252,1830.000000 915.468628,1830.000000 
	C912.404419,1827.236572 913.031555,1823.765747 913.029541,1820.494995 
	C912.995422,1764.868286 913.006531,1709.241699 913.005920,1653.614990 
	C913.005554,1626.301270 913.002441,1598.987671 913.012573,1571.673950 
	C913.013367,1569.512695 912.859375,1567.342285 913.284363,1564.702148 
	C912.820679,1552.432617 912.853088,1540.653198 913.316284,1528.381592 
	C912.967529,1525.577148 913.002136,1523.246460 913.002319,1520.915649 
	C913.007324,1441.996460 912.716858,1363.075806 913.153137,1284.159058 
	C913.318848,1254.201172 913.277588,1224.242065 913.487427,1193.795044 
	C912.608337,1181.725464 913.082031,1170.135010 913.285767,1158.081421 
	C913.455688,1156.072754 913.199768,1154.484009 914.236328,1152.663330 
	C917.318420,1151.180542 917.957336,1153.640503 918.647766,1155.221802 
	C920.238525,1158.864746 923.067505,1160.361572 926.732239,1161.046509 
	C938.475647,1163.241699 950.331543,1162.461792 962.097900,1161.933594 
	C972.544189,1161.464722 983.022888,1160.731079 993.418091,1159.312622 
	C1013.415955,1156.583740 1032.518311,1151.280884 1049.532227,1139.923584 
	C1050.777832,1139.092163 1052.229126,1138.425171 1053.068481,1137.186035 
	C1059.569824,1127.588989 1066.951416,1118.671509 1070.320312,1107.064941 
	C1075.757080,1088.333618 1077.436523,1069.276733 1078.443481,1049.930908 
	C1079.327637,1032.944092 1079.597046,1015.965820 1079.084229,999.022400 
	C1078.304932,973.275818 1077.765991,947.395508 1068.888916,922.670593 
	C1067.870483,919.834106 1067.018066,916.959839 1065.197876,914.536072 
	C1061.398438,909.476807 1057.773926,904.303467 1054.441040,898.923401 
	C1053.562988,897.506104 1052.512573,896.161194 1051.067627,895.284424 
	C1043.098022,890.448669 1035.299316,884.910522 1026.404907,882.261047 
	C1013.364807,878.376709 1000.130188,874.868225 986.406372,873.921265 
	C973.130981,873.005249 959.839783,872.429932 946.552734,871.751831 
	C940.193604,871.427307 933.932678,872.490234 927.633911,872.988037 
	C924.022400,873.273499 920.878052,874.542542 918.929321,877.982910 
	C918.047363,879.539856 916.916504,881.259094 914.305664,879.584473 
	C912.486450,875.883301 913.026917,872.330505 913.026367,868.863708 
	C913.000305,704.556519 913.003967,540.249390 913.004028,375.942200 
	C913.004028,254.461533 912.998657,132.980865 913.029663,11.500206 
	C913.030518,8.221240 912.400696,4.802200 914.678955,1.383676 
	C1170.020874,1.000000 1425.041870,1.000000 1680.531372,1.000000 
	C1686.066895,3.285923 1691.580444,2.330559 1696.699463,2.226858 
	C1711.311279,1.930855 1724.905396,6.962082 1739.037720,8.933619 
	C1758.669312,11.672326 1774.522827,22.757742 1791.438354,31.554300 
	C1793.872559,32.820210 1795.399658,35.072247 1796.886719,37.301949 
	C1802.341187,45.480328 1807.734009,53.700676 1813.271362,61.822224 
	C1815.874146,65.639519 1817.105225,69.937057 1818.252930,74.281265 
	C1820.764282,83.785767 1823.577515,93.205910 1826.114990,102.702362 
	C1828.808716,112.783875 1828.228516,123.177574 1828.998413,133.442368 
	C1829.146606,135.416138 1828.633057,137.446289 1829.751709,139.679230 
z"/>
<path fill="#808080" opacity="1.000000" stroke="none" 
	d="
M914.531372,1.000000 
	C914.997620,292.852966 914.995178,584.705933 914.994690,876.558899 
	C914.994690,877.391602 915.022278,878.224304 915.083740,879.522827 
	C916.995056,882.016846 916.979797,884.546021 916.980469,887.054504 
	C917.003174,973.046265 917.002869,1059.037964 916.979126,1145.029785 
	C916.978577,1147.194702 917.009338,1149.380859 915.481873,1151.699219 
	C915.065674,1153.416626 915.000732,1154.774292 914.892578,1156.537598 
	C913.244324,1158.749634 911.067566,1158.885986 908.883911,1158.955200 
	C906.385071,1159.034424 903.884460,1158.992676 901.384644,1158.992676 
	C681.393799,1158.994019 461.402954,1158.994507 241.412109,1158.992188 
	C230.206940,1158.992065 230.996078,1158.478149 230.995850,1169.214355 
	C230.993134,1296.875732 230.992935,1424.536987 230.995651,1552.198364 
	C230.995865,1561.993042 231.004684,1562.003662 240.946396,1562.003784 
	C461.770538,1562.007324 682.594666,1562.001831 903.418823,1562.037964 
	C907.022888,1562.038452 910.780029,1561.282227 914.526733,1563.676270 
	C914.927246,1606.605225 914.974365,1649.199463 914.990295,1691.793579 
	C915.007446,1737.549927 914.995483,1783.306396 914.998108,1829.531372 
	C660.312439,1830.000000 405.624878,1830.000000 150.468658,1830.000000 
	C144.934265,1827.714111 139.420975,1828.668823 134.303589,1828.772339 
	C119.692833,1829.067871 106.099312,1824.060547 91.973251,1822.050049 
	C72.033646,1819.212158 55.771584,1808.226807 38.659176,1799.049194 
	C36.867882,1798.088501 35.525654,1796.591309 34.347740,1794.948364 
	C33.085522,1793.187378 32.072010,1791.232910 30.682901,1789.587769 
	C14.282024,1770.164917 8.074258,1746.536011 3.116639,1722.451782 
	C1.577800,1714.975952 2.624930,1707.205811 1.247866,1699.318848 
	C1.000000,1177.312378 1.000000,655.624878 1.000000,133.468658 
	C3.100121,127.928528 1.969682,122.532066 2.336325,117.314697 
	C2.758710,111.304085 3.347238,105.414413 5.066882,99.641670 
	C5.778905,97.251457 6.303075,94.808517 6.981590,92.407372 
	C15.390099,62.651203 15.414738,62.669041 33.706921,36.882339 
	C36.006260,33.640934 38.970783,31.347107 42.390491,29.581242 
	C51.994278,24.622042 61.425419,19.337666 71.055176,14.428783 
	C72.544090,13.669795 74.089966,13.055380 75.720100,12.694422 
	C89.520744,9.638559 103.279419,6.391452 117.135262,3.586815 
	C125.337410,1.926575 133.692993,2.655912 141.959839,2.001341 
	C144.425125,1.806140 146.947784,2.451078 149.680634,1.247981 
	C404.687561,1.000000 659.375122,1.000000 914.531372,1.000000 
z"/>
<path fill="#000000" opacity="0.000000" stroke="none"
	d="
M1830.000000,139.531342 
	C1827.138062,140.504593 1828.036133,138.255341 1828.045166,137.050278 
	C1828.215820,114.469055 1822.038696,93.069481 1815.891235,71.676506 
	C1812.825317,61.007648 1804.385010,53.441219 1799.435059,43.865047 
	C1795.092407,35.463558 1787.746216,30.890982 1779.679688,26.910673 
	C1774.162231,24.188185 1768.821899,21.101456 1763.443359,18.104145 
	C1753.323608,12.464757 1741.852539,11.649732 1730.892090,9.114693 
	C1724.128418,7.550335 1717.409302,5.701900 1710.442139,4.894178 
	C1702.118164,3.929147 1693.792847,3.293426 1685.428833,2.981073 
	C1683.686768,2.916013 1681.694092,3.656451 1680.689941,1.375474 
	C1729.426270,1.000000 1777.852539,1.036953 1826.278442,0.915596 
	C1829.455566,0.907634 1830.083496,1.703672 1830.075928,4.767457 
	C1829.965454,49.532326 1830.000000,94.297546 1830.000000,139.531342 
z"/>
<path fill="#000000" opacity="0.000000" stroke="none"
	d="
M1681.468628,1830.000000 
	C1680.431396,1827.626099 1682.191406,1827.986816 1683.457520,1828.021484 
	C1707.555420,1828.677734 1730.492065,1821.950806 1753.706909,1817.000244 
	C1758.869751,1815.899292 1763.194702,1812.874023 1767.793091,1810.553223 
	C1775.592651,1806.616699 1783.144165,1802.190918 1790.840942,1798.047119 
	C1792.653687,1797.071167 1793.872192,1795.656494 1795.020752,1794.014526 
	C1800.690918,1785.908691 1805.712524,1777.372681 1811.749146,1769.500000 
	C1816.920776,1762.755615 1816.996826,1754.035645 1819.741089,1746.327515 
	C1822.114258,1739.661499 1823.227661,1732.556152 1825.108276,1725.702759 
	C1826.463257,1720.765137 1826.488770,1715.679077 1826.862549,1710.678833 
	C1827.291748,1704.939453 1828.644897,1699.246460 1828.093872,1693.423096 
	C1828.033447,1692.783691 1828.846558,1692.061523 1829.627197,1691.688843 
	C1830.000000,1736.764893 1829.958130,1781.529907 1830.087524,1826.294434 
	C1830.096802,1829.511475 1829.241089,1830.078979 1826.216553,1830.072510 
	C1778.123657,1829.969482 1730.030396,1830.000000 1681.468628,1830.000000 
z"/>
<path fill="#000000" opacity="0.000000" stroke="none"
	d="
M1.000000,1699.468628 
	C4.254812,1698.971313 2.789166,1701.475464 2.952043,1702.903442 
	C3.659090,1709.101807 4.090079,1715.331909 4.807936,1721.528931 
	C6.018098,1731.975464 10.495146,1741.648438 12.338715,1751.908447 
	C14.918783,1766.267212 24.978178,1776.386597 31.749582,1788.381348 
	C35.577766,1795.162476 41.264938,1799.235474 47.961864,1802.528687 
	C53.845867,1805.422485 59.677151,1808.459961 65.333038,1811.773193 
	C76.205055,1818.142212 88.628441,1818.956787 100.429428,1822.026733 
	C116.107597,1826.105591 132.035263,1827.991333 148.208252,1828.029297 
	C149.082764,1828.031372 149.839355,1828.276001 150.122116,1829.573486 
	C101.575874,1830.000000 53.151665,1829.963745 4.727831,1830.083130 
	C1.567007,1830.090942 0.914269,1829.318848 0.922668,1826.239136 
	C1.037486,1784.138794 1.000000,1742.037964 1.000000,1699.468628 
z"/>
<path fill="#000000" opacity="0.000000" stroke="none"
	d="
M149.531342,1.000000 
	C150.324570,4.140431 147.858490,2.945085 146.604523,2.939078 
	C126.933388,2.844844 108.046097,7.681478 88.887779,11.278125 
	C70.117111,14.802001 55.008141,25.400871 38.698219,33.787045 
	C35.404320,35.480690 34.347359,39.324524 32.303604,42.204781 
	C28.805466,47.134697 25.753557,52.423420 21.900406,57.050262 
	C14.432702,66.017456 13.423326,77.322258 10.028830,87.762871 
	C5.441010,101.873856 2.909309,116.339188 2.969779,131.215851 
	C2.973332,132.089859 2.719043,132.843536 1.424714,133.123260 
	C1.000000,90.233437 1.044247,47.466736 0.911371,4.700587 
	C0.901338,1.471573 1.775571,0.922084 4.788149,0.928445 
	C52.879494,1.029996 100.971123,1.000000 149.531342,1.000000 
z"/>
<path fill="#F1F1F2" opacity="1.000000" stroke="none" 
	d="
M1182.768066,228.774521 
	C1192.401855,220.564606 1201.556885,212.318573 1211.216064,204.712952 
	C1220.921387,197.071167 1232.688721,192.693985 1242.963501,185.955566 
	C1265.375732,171.257034 1291.274902,165.651611 1316.219604,157.760040 
	C1325.530273,154.814545 1335.883301,155.145477 1345.766968,154.036377 
	C1352.193726,153.315216 1358.644897,152.800705 1365.060547,151.996948 
	C1373.381348,150.954483 1381.582397,152.295578 1389.796631,153.085403 
	C1400.854004,154.148590 1411.870728,155.627014 1422.921631,156.765488 
	C1433.647949,157.870529 1443.218018,162.954941 1453.544556,165.408249 
	C1477.548340,171.110825 1498.080078,184.243866 1519.427124,195.765793 
	C1533.411133,203.313583 1544.116089,214.808304 1556.604492,224.115921 
	C1577.568237,239.740250 1591.979614,261.299713 1608.615723,280.860321 
	C1616.799072,290.482239 1621.355469,302.251495 1628.144775,312.679993 
	C1645.696289,339.639099 1655.710327,369.916016 1664.848267,400.249084 
	C1671.229614,421.431671 1674.705444,443.586609 1677.611938,465.621704 
	C1678.954712,475.800720 1677.912476,486.218842 1678.860352,496.520355 
	C1679.544312,503.956207 1678.884155,511.455078 1679.771729,518.947266 
	C1680.754761,527.243958 1678.530884,535.462708 1677.729980,543.708008 
	C1676.480713,556.570984 1674.311646,569.346802 1673.142456,582.214905 
	C1672.167114,592.950989 1668.124634,602.837036 1665.629272,613.140320 
	C1662.934082,624.269409 1659.694214,635.281616 1656.293701,646.221008 
	C1652.627563,658.014954 1645.944336,668.544983 1641.469238,680.004211 
	C1630.431641,708.267700 1611.808105,731.904297 1594.512817,756.251526 
	C1588.037842,765.366760 1578.797607,772.509216 1570.894531,780.625427 
	C1569.282349,782.281006 1567.926147,781.343750 1566.401489,780.755188 
	C1545.122925,772.541626 1523.164795,766.322693 1500.916992,761.807800 
	C1478.554443,757.269592 1456.142212,752.421692 1433.084839,751.767700 
	C1418.001831,751.339905 1402.984497,748.779907 1387.846558,749.143799 
	C1370.890991,749.551331 1353.919312,749.978821 1337.001221,751.101501 
	C1300.357300,753.533081 1263.992554,758.238464 1228.519775,768.029175 
	C1212.989380,772.315613 1197.809204,777.904907 1182.575928,783.206848 
	C1179.163330,784.394531 1177.208252,783.634216 1174.665405,781.377991 
	C1154.786865,763.740417 1140.049805,742.034180 1125.011108,720.419006 
	C1110.877808,700.105103 1101.998291,677.286316 1092.145264,654.995239 
	C1082.669434,633.557617 1077.875000,610.391724 1072.476440,587.659668 
	C1068.976685,572.923157 1068.763672,557.412048 1066.979004,542.259705 
	C1065.988403,533.850220 1064.574463,525.482117 1065.049683,516.963684 
	C1066.040894,499.194733 1065.907471,481.337646 1067.383545,463.646606 
	C1068.590210,449.185730 1072.919922,435.013458 1075.208374,420.608856 
	C1079.717407,392.228790 1091.347656,366.150787 1101.686768,339.776245 
	C1107.218140,325.665985 1116.753052,313.171356 1123.854126,299.619049 
	C1133.395752,281.409302 1148.119751,267.232971 1160.394653,251.156326 
	C1166.782471,242.790070 1174.082764,235.343430 1182.768066,228.774521 
z"/>
<path fill="#9C9C9C" opacity="1.000000" stroke="none" 
	d="
M914.936584,1563.543701 
	C767.740784,1563.996094 620.587769,1563.978394 473.434784,1563.967163 
	C394.442047,1563.961182 315.449280,1563.966431 236.456528,1563.965210 
	C229.032028,1563.965088 229.026581,1563.960693 229.026535,1556.535767 
	C229.025803,1425.714478 229.026260,1294.893066 229.027557,1164.071777 
	C229.027634,1157.000244 229.032227,1156.995972 236.003174,1156.995728 
	C461.982330,1156.988159 687.961487,1156.981567 914.394958,1156.958984 
	C914.888428,1168.685303 914.927612,1180.427368 914.932983,1192.644287 
	C914.644104,1193.326904 914.388977,1193.534424 913.701355,1193.979126 
	C910.545898,1195.317017 907.681091,1194.960449 904.869446,1194.962524 
	C868.895081,1194.990112 832.920715,1194.971924 796.946350,1194.995361 
	C794.630127,1194.996826 792.276428,1194.690674 789.632202,1195.751709 
	C787.275940,1198.222046 787.476013,1200.923340 787.476929,1203.592285 
	C787.484741,1226.403931 787.234070,1249.218628 787.526245,1272.026489 
	C788.569031,1353.437256 787.670227,1434.850220 787.983398,1516.261230 
	C788.020874,1526.005005 787.995056,1526.010620 797.812439,1526.011719 
	C833.778198,1526.015625 869.743958,1526.002563 905.709717,1526.030029 
	C908.513306,1526.032227 911.398254,1525.647461 914.404114,1527.427246 
	C914.849609,1539.517578 914.914490,1551.296875 914.936584,1563.543701 
z"/>
<path fill="#F2EEEF" opacity="1.000000" stroke="none" 
	d="
M1065.303223,1534.317383 
	C1054.668579,1533.421875 1052.642944,1531.992554 1050.792480,1521.833496 
	C1046.366333,1497.533325 1042.330933,1473.162354 1037.974731,1448.849121 
	C1035.075562,1432.668335 1032.253418,1416.400269 1032.400757,1399.992310 
	C1032.486450,1390.434326 1033.653564,1380.727173 1038.493652,1371.654907 
	C1044.967285,1359.521240 1055.190552,1352.505493 1067.337891,1347.906738 
	C1091.629150,1338.710815 1117.018433,1333.252319 1142.160034,1327.051392 
	C1183.494995,1316.856567 1224.320923,1305.040527 1264.186157,1290.053589 
	C1292.562988,1279.385498 1320.272949,1267.098145 1346.991943,1252.830078 
	C1372.822266,1239.036743 1397.905151,1223.872925 1422.129761,1207.358398 
	C1446.325439,1190.863647 1470.455444,1174.271240 1494.741577,1157.910767 
	C1510.203369,1147.494873 1525.942871,1137.476074 1542.722168,1129.274414 
	C1554.244873,1123.642212 1566.189453,1119.091797 1579.159302,1118.116455 
	C1593.943604,1117.004395 1607.009399,1122.121826 1619.007080,1130.055176 
	C1631.862915,1138.556030 1642.819458,1149.191040 1652.137939,1161.522339 
	C1654.913940,1165.196045 1655.859375,1169.672363 1658.403320,1173.755615 
	C1659.271729,1174.304688 1659.477417,1174.890991 1659.789795,1175.786865 
	C1659.969849,1176.048950 1659.975464,1175.990234 1659.955078,1176.011719 
	C1660.533691,1176.625854 1661.234009,1177.284058 1661.229614,1178.111206 
	C1661.191406,1185.367310 1662.813721,1192.482544 1661.149780,1199.910522 
	C1655.894897,1223.368408 1643.374268,1243.130493 1630.648926,1262.921753 
	C1616.986938,1284.170288 1600.688477,1303.363770 1584.052490,1322.189453 
	C1569.062866,1339.151978 1552.256958,1354.380493 1534.904541,1369.029175 
	C1497.519043,1400.589355 1456.505737,1426.604736 1413.221558,1449.021851 
	C1373.973877,1469.348511 1333.276733,1486.451904 1291.093018,1499.855225 
	C1244.425171,1514.683472 1196.817871,1524.940063 1148.047729,1529.809448 
	C1125.187134,1532.091919 1102.340088,1534.310547 1079.351929,1534.668823 
	C1074.771973,1534.740234 1070.173218,1536.892456 1065.303223,1534.317383 
z"/>
<path fill="#F28A98" opacity="1.000000" stroke="none" 
	d="
M915.377319,1152.289307 
	C915.081421,1151.229004 914.989258,1150.398926 914.989319,1149.568970 
	C914.994873,1060.020386 915.007446,970.471741 915.075073,880.455872 
	C915.677368,879.655701 916.600098,879.419800 916.714905,878.975281 
	C918.526855,871.958923 924.072632,871.426453 929.928955,870.931152 
	C936.056396,870.412842 942.160767,869.770935 948.321350,870.003174 
	C974.532776,870.991333 1001.052185,871.315308 1025.911255,880.381226 
	C1039.332642,885.275940 1054.214600,890.134644 1060.587524,905.708191 
	C1061.423584,907.751038 1063.524536,909.272034 1065.023071,911.048584 
	C1071.446777,918.662659 1071.891113,928.537170 1074.819580,937.442139 
	C1079.168213,950.666016 1078.891357,964.591980 1079.965576,978.283447 
	C1081.516235,998.048889 1081.487671,1017.882446 1080.829224,1037.658691 
	C1080.267700,1054.528564 1079.994019,1071.519287 1076.858276,1088.175537 
	C1075.172607,1097.128784 1072.270020,1105.854370 1069.885864,1114.674316 
	C1068.948120,1118.143311 1066.112061,1120.538940 1064.628784,1123.682007 
	C1058.454834,1136.763672 1047.465698,1144.298828 1034.825195,1150.118164 
	C1021.391785,1156.302490 1007.133606,1159.119385 992.619324,1161.019531 
	C973.977600,1163.459839 955.254333,1164.276978 936.461243,1164.055786 
	C931.562256,1163.998047 926.915100,1162.883911 922.228333,1161.842041 
	C917.317322,1160.750366 917.815735,1155.642334 915.377319,1152.289307 
z"/>
<path fill="#90F224" opacity="1.000000" stroke="none" 
	d="
M914.860474,1527.295410 
	C873.486084,1527.748047 832.187378,1527.713623 790.889099,1527.843140 
	C787.187378,1527.854736 786.079102,1526.850586 786.082825,1523.079590 
	C786.189026,1414.171143 786.180603,1305.262695 786.202209,1196.354126 
	C786.202393,1195.531250 786.362366,1194.708252 786.726746,1193.620117 
	C789.528015,1195.744019 788.934937,1198.899902 788.943848,1201.823608 
	C789.009338,1223.316772 788.962402,1244.810303 788.984802,1266.303711 
	C788.992859,1273.990112 789.017273,1274.014282 796.832581,1274.016724 
	C832.821594,1274.027832 868.810547,1274.033203 904.799561,1274.013062 
	C911.878418,1274.009033 912.004272,1273.876587 912.013123,1266.680786 
	C912.039612,1245.187378 912.003540,1223.693970 912.041687,1202.200562 
	C912.046692,1199.397461 911.675293,1196.501465 913.649536,1193.593506 
	C913.995178,1193.256226 914.441589,1193.149658 914.670410,1193.134521 
	C914.945129,1257.068604 915.016418,1321.017700 915.028625,1384.966919 
	C915.037720,1432.262207 914.969849,1479.557373 914.860474,1527.295410 
z"/>
<path fill="#B19498" opacity="1.000000" stroke="none" 
	d="
M1064.987793,1534.494629 
	C1087.901367,1532.698364 1110.858032,1531.866821 1133.705078,1529.814697 
	C1169.461426,1526.603149 1204.917236,1521.145996 1239.834717,1512.617188 
	C1282.433105,1502.212402 1323.802612,1488.149048 1363.980957,1470.578613 
	C1403.098877,1453.471924 1440.732056,1433.631958 1476.542480,1410.312866 
	C1514.962402,1385.294312 1550.348022,1356.556030 1581.251465,1322.749756 
	C1606.524902,1295.102051 1629.657104,1265.707153 1647.228638,1232.223999 
	C1653.358154,1220.543945 1657.748413,1208.490723 1660.249146,1195.798706 
	C1661.435669,1189.776001 1660.100342,1183.256592 1659.921143,1176.497681 
	C1663.093384,1176.060181 1663.974365,1179.022461 1665.166382,1180.855713 
	C1669.658691,1187.763916 1673.637451,1194.668945 1674.263550,1203.557861 
	C1675.515381,1221.329102 1669.081299,1236.434570 1661.407593,1251.786011 
	C1652.561890,1269.481934 1641.108032,1285.395508 1629.816895,1301.398560 
	C1621.512451,1313.168579 1611.907715,1324.065430 1602.410522,1334.939209 
	C1588.938477,1350.364136 1574.571777,1364.991821 1559.035767,1378.333618 
	C1536.847168,1397.388550 1513.717285,1415.227783 1489.051880,1431.062744 
	C1451.296387,1455.301147 1411.726685,1475.941284 1370.434937,1493.507935 
	C1335.152832,1508.517578 1298.963257,1520.730713 1261.925049,1530.328003 
	C1238.666016,1536.354858 1215.042847,1540.919800 1191.169312,1544.159424 
	C1168.323242,1547.259766 1145.450073,1549.721924 1122.434814,1551.171021 
	C1107.839966,1552.089966 1093.272339,1553.179565 1078.639160,1553.041870 
	C1070.273193,1552.963135 1067.999268,1551.241577 1066.283569,1543.255127 
	C1065.693237,1540.507690 1065.406860,1537.694946 1064.987793,1534.494629 
z"/>
<path fill="#B19498" opacity="1.000000" stroke="none" 
	d="
M1659.962646,1175.712402 
	C1659.600342,1175.567993 1659.230713,1175.087158 1658.742798,1174.305420 
	C1659.068115,1174.461670 1659.511841,1174.918701 1659.962646,1175.712402 
z"/>
<path fill="#9C9C9C" opacity="1.000000" stroke="none" 
	d="
M87.977074,553.000000 
	C87.976631,500.834595 88.099243,449.168579 87.825836,397.504608 
	C87.790215,390.774658 89.537445,385.413666 93.465775,380.152222 
	C108.776520,359.645508 123.969879,339.049164 139.017502,318.348511 
	C154.822800,296.605499 170.374817,274.678558 186.105576,252.881088 
	C199.524750,234.286713 213.038498,215.760574 226.515869,197.208221 
	C228.142746,194.968735 230.349747,193.679794 232.996643,192.818802 
	C281.265839,177.117477 329.512665,161.347305 377.773468,145.620148 
	C402.455566,137.576767 427.186005,129.680023 451.819702,121.491714 
	C456.198334,120.036232 460.041870,120.151657 464.378448,121.573372 
	C498.998566,132.923279 533.695190,144.039505 568.341980,155.308197 
	C603.786499,166.836288 639.091064,178.812653 674.701477,189.800186 
	C684.342346,192.774857 690.558655,198.312256 696.147461,206.102966 
	C718.617615,237.425980 741.443665,268.493500 764.077820,299.699188 
	C781.736145,324.044586 799.303162,348.456146 816.916260,372.834229 
	C819.542114,376.468597 822.036438,380.214386 824.883057,383.668365 
	C828.161377,387.646088 829.002380,392.135376 828.998962,397.109558 
	C828.948853,469.941071 828.764465,542.773804 829.196411,615.602844 
	C829.256226,625.694092 825.979858,633.483765 820.301453,641.127563 
	C807.719604,658.064331 795.330200,675.144226 782.904053,692.196167 
	C766.559082,714.625793 750.250305,737.081848 733.933289,759.531799 
	C719.280212,779.692566 704.609985,799.840942 690.020874,820.047852 
	C687.984619,822.868225 685.562744,824.766785 682.215820,825.839905 
	C649.730835,836.255676 617.257141,846.707336 584.814026,857.252808 
	C548.901855,868.925781 513.024475,880.705566 477.133698,892.444397 
	C472.712250,893.890503 468.220673,895.166443 463.905884,896.883850 
	C457.679504,899.362183 452.100067,896.734863 446.502319,894.928467 
	C422.584503,887.210144 398.743103,879.255371 374.847076,871.468994 
	C334.200867,858.224548 293.536560,845.035461 252.874466,831.839722 
	C246.546127,829.785950 240.215729,827.730225 233.834824,825.850098 
	C230.459412,824.855408 228.050323,822.889954 226.010422,820.076721 
	C200.647919,785.099182 175.213821,750.173523 149.829514,715.211731 
	C129.716553,687.510071 109.677162,659.754822 89.499207,632.100647 
	C87.928429,629.947876 87.986603,627.797241 87.985283,625.499939 
	C87.971558,601.499939 87.977005,577.500000 87.977074,553.000000 
z"/>
<path fill="#0D0D0D" opacity="1.000000" stroke="none" 
	d="
M1112.723145,624.740601 
	C1121.693848,635.877197 1129.868164,647.157837 1141.329468,655.625488 
	C1151.047729,662.805359 1161.351318,668.473816 1172.836426,672.250061 
	C1184.284546,676.014160 1195.993042,676.820435 1207.838013,676.083862 
	C1216.012695,675.575562 1224.127319,673.560242 1231.553833,670.440369 
	C1257.340698,659.607483 1276.389771,641.287109 1289.474243,616.523315 
	C1303.101807,590.731323 1308.686646,563.146667 1308.660400,534.252197 
	C1308.639282,510.936005 1309.209839,487.594666 1306.965454,464.334259 
	C1304.558105,439.385345 1297.745728,415.925201 1284.699341,394.224243 
	C1274.126953,376.638550 1259.984497,362.858276 1242.403809,352.930573 
	C1231.437744,346.738098 1219.241821,343.186462 1206.367432,342.210297 
	C1186.612061,340.712433 1168.456665,345.346405 1151.727173,355.558868 
	C1136.201660,365.036346 1123.162964,377.199585 1113.798340,393.004425 
	C1113.484375,393.534180 1112.973755,393.947388 1112.338135,394.656799 
	C1112.261963,391.223450 1116.561768,379.717590 1119.624023,374.308014 
	C1129.697144,356.513428 1141.568726,339.949890 1157.157471,326.722351 
	C1170.085815,315.752197 1184.582642,306.977570 1201.022583,301.581116 
	C1218.612915,295.807007 1236.300781,294.187500 1254.558105,297.063080 
	C1271.572388,299.742798 1286.904297,306.183044 1301.418335,315.431488 
	C1324.769775,330.311310 1341.125366,351.328247 1353.501221,375.303497 
	C1363.124268,393.945251 1368.797241,414.237671 1372.328369,435.076569 
	C1375.096436,451.412933 1375.623047,467.885651 1376.074829,484.328247 
	C1376.706055,507.305786 1377.020996,530.332764 1376.239014,553.296631 
	C1375.501465,574.958862 1371.458862,596.187866 1364.679077,616.934753 
	C1356.685669,641.395813 1344.344849,663.418152 1326.780762,681.889893 
	C1309.538330,700.023315 1288.874268,713.229980 1263.873779,719.372986 
	C1240.661621,725.076538 1218.053345,723.288147 1196.247559,715.203674 
	C1181.710938,709.814209 1168.563477,701.235596 1156.600830,690.753967 
	C1136.066528,672.762085 1122.720459,650.168152 1111.710449,625.368408 
	C1111.868042,624.862976 1112.104858,624.730164 1112.723145,624.740601 
z"/>
<path fill="#7F7D80" opacity="1.000000" stroke="none" 
	d="
M1113.105225,624.522095 
	C1112.855103,624.852478 1112.605835,624.821106 1111.993774,624.892822 
	C1109.995728,623.004089 1109.897583,620.481934 1108.843994,617.244568 
	C1111.385742,619.613770 1111.982056,622.055481 1113.105225,624.522095 
z"/>
<path fill="#828083" opacity="1.000000" stroke="none" 
	d="
M1109.584961,400.079712 
	C1109.269897,400.466125 1109.208008,400.626465 1109.094116,400.729218 
	C1108.902954,400.901733 1108.678833,401.037598 1108.468628,401.188904 
	C1108.326294,399.373657 1108.993774,397.911713 1110.419434,396.518341 
	C1111.570679,398.050171 1110.239258,398.852661 1109.584961,400.079712 
z"/>
<path fill="#828083" opacity="1.000000" stroke="none" 
	d="
M1111.750000,395.250000 
	C1111.727051,395.777222 1111.435181,396.149231 1111.126465,395.585510 
	C1111.072876,395.487823 1111.366699,395.199982 1111.750000,395.250000 
z"/>
<path fill="#90F224" opacity="1.000000" stroke="none" 
	d="
M656.429321,1275.636841 
	C656.868774,1277.974365 657.040161,1279.967773 657.040466,1281.961182 
	C657.053650,1361.788452 657.007141,1441.615967 657.158691,1521.442871 
	C657.168030,1526.353638 656.161499,1527.923950 650.909363,1527.897461 
	C605.247314,1527.668701 559.583252,1527.688477 513.920837,1527.877686 
	C509.001404,1527.898071 507.929504,1526.412476 507.935822,1521.706665 
	C508.079803,1414.048218 508.059387,1306.389771 508.084503,1198.731201 
	C508.084900,1197.077026 508.271393,1195.422974 508.681946,1193.520020 
	C511.509369,1195.652466 510.945465,1198.797607 510.953400,1201.723022 
	C511.012054,1223.343628 510.968903,1244.964722 510.991180,1266.585571 
	C510.998779,1273.947021 511.055756,1274.005981 518.600647,1274.009033 
	C561.509827,1274.025879 604.418945,1274.004517 647.328125,1274.036255 
	C650.286621,1274.038452 653.350342,1273.586060 656.429321,1275.636841 
z"/>
<path fill="#90F224" opacity="1.000000" stroke="none" 
	d="
M377.648041,1193.630859 
	C379.532593,1194.631958 378.843903,1196.421265 378.844604,1197.991455 
	C378.893433,1306.132446 378.872620,1414.273560 379.023621,1522.414429 
	C379.030060,1527.015747 377.560181,1527.877808 373.335693,1527.857300 
	C340.010986,1527.695557 306.685150,1527.740479 273.359833,1527.809082 
	C269.976532,1527.816040 267.926819,1527.679199 267.932831,1523.150269 
	C268.077850,1414.176147 268.059509,1305.202026 268.084290,1196.227783 
	C268.084473,1195.407227 268.271362,1194.586548 268.682800,1193.517822 
	C271.507233,1195.661865 270.935730,1198.814087 270.944214,1201.743896 
	C271.006897,1223.408203 270.957336,1245.072876 270.985962,1266.737427 
	C270.995422,1273.898438 271.106232,1274.010742 278.254608,1274.015015 
	C308.584991,1274.033325 338.915405,1274.040527 369.245789,1274.010132 
	C375.747131,1274.003540 375.996307,1273.753052 376.008514,1267.231201 
	C376.049164,1245.566650 376.003540,1223.901978 376.042664,1202.237427 
	C376.047729,1199.432251 375.689117,1196.538086 377.648041,1193.630859 
z"/>
<path fill="#7DE41C" opacity="1.000000" stroke="none" 
	d="
M656.848694,1275.518799 
	C609.367554,1275.988892 561.957764,1275.942627 514.548584,1276.095703 
	C510.199768,1276.109741 508.856720,1274.971069 508.892548,1270.516602 
	C509.097168,1245.066772 508.992737,1219.614380 508.993073,1193.717041 
	C510.649719,1193.182251 512.306580,1193.015625 513.963501,1193.015137 
	C559.722656,1193.000854 605.482056,1193.065796 651.240601,1192.905762 
	C655.764709,1192.889893 657.133606,1194.030518 657.088135,1198.682495 
	C656.839539,1224.138550 656.939819,1249.598145 656.848694,1275.518799 
z"/>
<path fill="#7DE41C" opacity="1.000000" stroke="none" 
	d="
M913.534119,1193.166016 
	C913.997803,1219.081055 913.916992,1244.906616 914.087891,1270.730225 
	C914.115417,1274.887939 912.864563,1276.102173 908.720398,1276.087280 
	C869.900269,1275.948364 831.079285,1275.946777 792.259155,1276.089111 
	C788.079590,1276.104370 786.892395,1274.828491 786.919250,1270.705933 
	C787.085266,1245.215210 787.003357,1219.723145 787.004761,1193.793213 
	C787.990417,1193.239380 788.974976,1193.023193 789.959595,1193.023315 
	C830.997437,1193.028809 872.035217,1193.053467 913.534119,1193.166016 
z"/>
<path fill="#7DE41C" opacity="1.000000" stroke="none" 
	d="
M377.540283,1193.194824 
	C378.000610,1218.961182 377.884033,1244.622803 378.110840,1270.281372 
	C378.152435,1274.987793 376.675751,1276.122803 372.167267,1276.098633 
	C339.675873,1275.923828 307.182495,1275.906372 274.691498,1276.113647 
	C269.940704,1276.143921 268.867401,1274.609131 268.900940,1270.142944 
	C269.091156,1244.817017 268.993958,1219.489014 268.994568,1193.715698 
	C279.449829,1193.180786 289.905090,1193.022217 300.360382,1193.016602 
	C325.934082,1193.003052 351.507782,1193.060181 377.540283,1193.194824 
z"/>
<path fill="#B27181" opacity="1.000000" stroke="none" 
	d="
M967.031738,1141.022217 
	C956.782471,1140.912964 957.978577,1142.163086 957.966858,1132.593384 
	C957.947754,1116.982544 957.533508,1101.361694 959.951599,1085.836914 
	C961.449219,1076.221436 963.805176,1073.976929 973.512878,1073.979248 
	C992.996155,1073.983643 1012.480530,1074.086304 1031.961792,1073.883789 
	C1036.459839,1073.837036 1038.170532,1075.103027 1038.107178,1079.803711 
	C1037.990234,1088.472168 1037.258423,1097.017578 1035.348999,1105.472046 
	C1030.913086,1125.114746 1017.166077,1134.165894 998.654297,1137.871460 
	C988.374146,1139.929077 978.008179,1141.057861 967.031738,1141.022217 
z"/>
<path fill="#90F224" opacity="1.000000" stroke="none" 
	d="
M666.538208,733.551758 
	C659.099121,740.001770 651.843933,746.128052 644.800232,752.488586 
	C634.540222,761.753296 621.739319,767.025208 610.463928,774.675476 
	C588.769409,789.394958 564.090759,797.875671 539.411011,804.713501 
	C516.535828,811.051514 492.776642,814.802246 468.533295,815.499512 
	C437.707611,816.386108 407.701324,812.048340 377.986328,805.386902 
	C364.293243,802.317261 351.429840,795.675476 338.041077,791.088867 
	C318.719666,784.469910 302.623138,772.043884 285.045807,762.290710 
	C272.664490,755.420654 263.477142,744.559814 252.451431,736.000061 
	C232.007950,720.128723 217.604385,698.894226 202.345108,678.608154 
	C194.221268,667.808167 188.565994,655.044189 182.521408,642.808594 
	C168.271317,613.963257 158.531647,583.683350 154.948364,551.567566 
	C154.154999,544.456970 153.117584,537.370239 152.046082,530.294739 
	C150.104385,517.473145 152.763184,504.711243 152.442795,491.933319 
	C151.797501,466.197998 159.765427,441.971558 165.213211,417.329102 
	C167.549820,406.759857 173.693359,397.438904 177.273193,387.240601 
	C186.242386,361.688873 202.720459,340.537323 217.518875,318.453949 
	C222.183350,311.493317 229.301041,306.230469 234.716934,299.709717 
	C252.975601,277.726288 276.429962,261.974976 299.718323,246.287766 
	C311.351471,238.451599 324.920105,233.469818 337.670319,227.315140 
	C359.307648,216.870544 382.633301,211.555679 405.896240,206.899734 
	C422.607483,203.555069 439.956940,202.599045 457.056183,202.245926 
	C470.798706,201.962112 484.588165,204.243530 498.365173,205.275101 
	C521.700317,207.022324 544.132812,213.748093 565.539978,221.937759 
	C591.053833,231.698502 615.351379,244.510590 637.901917,260.851349 
	C660.587341,277.289856 679.522278,297.192291 697.952942,317.711823 
	C706.102295,326.784821 711.422791,338.335297 718.736572,348.237396 
	C729.185303,362.383972 734.587463,378.915710 742.087646,394.476929 
	C753.323975,417.789642 756.512390,443.236786 762.448120,467.937500 
	C764.130005,474.936340 763.384033,482.518799 763.749512,489.833740 
	C764.746887,509.792755 764.076660,529.562561 761.812439,549.547485 
	C758.693298,577.079041 749.927856,602.815796 740.739990,628.450684 
	C736.344543,640.714417 728.712036,651.807068 722.666321,663.492554 
	C710.753357,686.518616 693.231079,705.311035 676.497742,724.684265 
	C673.692810,727.931641 670.064575,730.467896 666.538208,733.551758 
z"/>
<path fill="#7DE41C" opacity="1.000000" stroke="none" 
	d="
M618.397461,702.427734 
	C604.216003,716.399658 586.586060,724.863708 569.855591,734.666321 
	C560.195557,740.326355 549.333862,743.255127 538.902222,747.063293 
	C514.376770,756.016724 488.968109,759.542542 462.831635,760.273499 
	C438.973114,760.940735 415.776245,757.513062 392.765656,752.484558 
	C382.303802,750.198242 372.517853,744.973816 362.241882,741.649048 
	C343.113312,735.459778 327.226532,723.354126 310.322479,713.233154 
	C301.766113,708.110229 294.868500,700.230896 287.171631,693.655457 
	C270.468903,679.386108 257.192413,662.033203 245.588684,643.744690 
	C232.324066,622.838562 222.328979,600.216980 215.541336,576.107422 
	C211.545029,561.912476 210.751541,547.399414 207.831696,533.177185 
	C205.137299,520.052979 207.093430,507.034180 207.152710,493.994965 
	C207.216858,479.884369 210.345779,466.121918 213.132874,452.267365 
	C217.252365,431.789673 225.121826,412.735718 234.220596,394.368835 
	C243.335587,375.969269 254.691467,358.622406 268.972198,343.510803 
	C273.080261,339.163757 277.206055,334.826080 281.142639,330.325714 
	C293.346344,316.374359 309.331635,307.163940 323.843445,296.111023 
	C331.989929,289.906281 341.907013,286.974335 350.683136,281.994904 
	C367.890747,272.231598 386.994659,268.370880 405.651031,263.003326 
	C415.642059,260.128876 425.907043,259.840698 436.131989,258.971191 
	C441.405914,258.522705 446.672333,257.917938 451.915131,257.189514 
	C458.439453,256.283051 464.846771,257.598236 471.284058,258.066132 
	C480.525513,258.737915 489.728729,259.918762 498.958557,260.771210 
	C510.146698,261.804565 520.469482,266.320526 531.333374,268.667419 
	C551.641724,273.054626 569.931702,282.867279 587.337402,293.243500 
	C608.066284,305.600861 626.783447,320.997284 643.380249,339.185425 
	C656.885071,353.985138 667.415771,370.514496 678.256836,386.992432 
	C684.213684,396.046661 686.971863,406.723053 691.697510,416.419769 
	C700.627686,434.743866 702.770020,454.924286 707.781616,474.314728 
	C708.852295,478.457520 708.610596,482.983765 708.589844,487.182373 
	C708.514282,502.397339 711.701294,517.574707 708.381348,532.870911 
	C706.175232,543.035034 705.360229,553.506104 704.033875,563.854065 
	C703.432861,568.542236 701.638306,572.858093 700.023254,577.195862 
	C695.328735,589.804565 693.210754,603.375427 686.354858,615.155457 
	C679.924622,626.204102 674.942200,638.052979 667.416321,648.820129 
	C664.396240,646.441528 665.511597,643.083557 665.391235,640.043701 
	C664.831360,625.895813 661.020630,613.146606 650.302002,603.145264 
	C639.174927,592.762939 622.136536,592.812866 610.807373,602.991333 
	C600.312012,612.420654 595.754333,624.457458 595.113831,638.055054 
	C594.534912,650.346252 594.811768,662.684204 597.803955,674.746399 
	C600.364441,685.068237 606.291931,693.077454 615.058899,699.030640 
	C616.296143,699.870789 617.613770,700.628540 618.397461,702.427734 
z"/>
<path fill="#F1F1F1" opacity="1.000000" stroke="none" 
	d="
M618.841736,702.859863 
	C600.527344,693.067078 594.141418,676.989258 593.763428,657.642761 
	C593.546082,646.520691 592.489624,635.356140 595.749451,624.425415 
	C599.259644,612.654785 605.445068,602.826477 616.606445,597.069641 
	C631.196716,589.544373 648.348206,594.964722 657.930054,609.382507 
	C665.795288,621.217285 667.147034,634.434998 667.066162,648.536621 
	C667.067444,658.627747 667.313782,668.308777 663.908447,677.539612 
	C658.996887,690.853271 650.979675,701.033569 636.330994,704.403320 
	C630.446045,705.757019 624.800598,704.738892 618.841736,702.859863 
z"/>
<path fill="#F1F1F1" opacity="1.000000" stroke="none" 
	d="
M356.028320,445.973724 
	C352.696564,460.799103 346.922607,473.770447 335.397552,483.695160 
	C316.298279,500.142242 288.929413,497.832458 272.680084,478.479401 
	C263.383270,467.406860 257.794891,454.737732 256.598541,440.499512 
	C254.984634,421.292084 253.112213,401.916931 258.475830,382.960449 
	C263.694000,364.518036 273.796478,349.919342 292.444519,342.610565 
	C307.493042,336.712585 326.264771,341.202484 337.514679,352.887878 
	C350.306183,366.174530 356.055664,382.201324 356.928375,400.217712 
	C357.660706,415.335175 358.592194,430.482269 356.028320,445.973724 
z"/>
</svg>